<svg xmlns="http://www.w3.org/2000/svg" viewBox="91 141 14 9" fill="#000">
  <path d="m 95.091797,141.88086 a 0.19876668,0.19876668 0 0 0 -0.04883,0.006 l -0.136719,0.0352 c -0.668268,0.1637 -1.153824,0.66035 -1.195313,1.2793 -0.0094,0.13981 0.0078,0.27581 0.07422,0.69531 0.04422,0.27912 0.121331,0.78826 0.169922,1.12891 0.04879,0.34204 0.112017,0.78651 0.140625,0.98633 0.0092,0.0641 0.01613,0.11456 0.02344,0.16797 -0.141253,0.004 -0.360392,0.006 -0.703125,0.008 l -0.927735,0.004 a 0.19876668,0.19876668 0 0 0 -0.05469,0.008 l -0.140625,0.041 c -0.366364,0.10516 -0.642123,0.31685 -0.814453,0.63086 -0.136874,0.2494 -0.175231,0.57464 -0.09766,0.85157 0.07634,0.27255 0.266139,0.52039 0.509766,0.68359 0.204556,0.13703 0.383299,0.21097 0.613281,0.25391 a 0.19876668,0.19876668 0 0 0 0.002,0 c 0.06901,0.0127 0.112369,0.0111 0.244141,0.0137 0.131772,0.003 0.330183,0.005 0.625,0.006 0.589633,0.003 1.564044,0.003 3.150391,0.002 l 3.880859,-0.004 a 0.19876668,0.19876668 0 0 0 0.0508,-0.008 l 0.13086,-0.0351 c 0.59878,-0.15535 1.05663,-0.53275 1.23633,-1.05469 0.0456,-0.13234 0.0796,-0.2612 0.0664,-0.47461 -0.0132,-0.21341 -0.0604,-0.53082 -0.15235,-1.15235 -0.0476,-0.32135 -0.12978,-0.88335 -0.18359,-1.25 -0.0521,-0.35511 -0.10477,-0.70458 -0.1211,-0.81445 0.0249,-3.3e-4 0.041,-0.002 0.0684,-0.002 h 0.18555 l -0.0117,-0.0195 c 0.0964,0.14694 0.22412,0.26841 0.37695,0.35351 0.23894,0.13313 0.51278,0.18619 0.78516,0.1543 0.60248,-0.0705 1.03569,-0.51115 1.03906,-1.08594 0.001,-0.23269 -0.0557,-0.43425 -0.17578,-0.64062 -0.21147,-0.36341 -0.58111,-0.61585 -1.0332,-0.72657 l -0.13672,-0.0352 a 0.19876668,0.19876668 0 0 0 -0.0488,-0.006 h -3.695311 z m 5.710933,0.7168 c -0.17616,0.26922 -0.27823,0.5663 -0.23437,0.89453 0.025,0.18654 0.16474,1.15413 0.38086,2.625 0.0818,0.5571 0.12347,0.84773 0.13476,1.00586 0.0113,0.15812 0.005,0.15569 -0.0293,0.24804 -0.0537,0.14612 -0.12996,0.24864 -0.28711,0.3711 -0.10197,0.0795 -0.30701,0.17334 -0.42969,0.19922 -0.343493,0.0725 -0.642898,-0.006 -0.876953,-0.2168 -0.158863,-0.14329 -0.230022,-0.31806 -0.216796,-0.47852 0.02051,-0.24882 0.324505,-0.40208 0.558593,-0.26953 0.07598,0.043 0.09118,0.0666 0.103516,0.12305 0.01082,0.0494 0.02264,0.10971 0.02539,0.12305 a 0.19876668,0.19876668 0 0 0 0.002,0.002 c 0.01561,0.0704 0.03657,0.0894 0.05664,0.11523 0.02008,0.0258 0.0407,0.0487 0.06641,0.0703 a 0.19876668,0.19876668 0 0 0 0.002,0 c 0.0582,0.0486 0.16804,0.0898 0.24805,0.0898 0.13242,0 0.28896,-0.0508 0.36328,-0.18359 0.0743,-0.13278 0.0544,-0.2659 0.0156,-0.4043 -0.0877,-0.31324 -0.34975,-0.54919 -0.6836,-0.64844 -0.12055,-0.0358 -0.225682,-0.061 -0.582028,-0.0703 -0.356346,-0.009 -0.995601,-0.01 -2.273438,-0.01 -0.67553,-5e-5 -1.275001,-0.001 -1.705078,-0.004 -0.215038,-0.001 -0.387545,-0.002 -0.505859,-0.004 -0.006,-8e-5 -0.008,8e-5 -0.01367,0 -0.0032,-0.023 -0.0059,-0.0372 -0.0098,-0.0644 -0.01994,-0.14023 -0.04783,-0.33575 -0.08008,-0.5586 -0.06449,-0.44568 -0.144503,-1.00355 -0.21289,-1.46484 -0.03158,-0.21301 -0.06124,-0.41643 -0.08203,-0.57227 -0.01039,-0.0779 -0.01784,-0.1451 -0.02344,-0.19335 -0.0056,-0.0483 -0.0074,-0.0957 -0.0078,-0.0684 a 0.19876668,0.19876668 0 0 0 0,-0.002 c 0.0026,-0.19196 0.193371,-0.46464 0.425782,-0.56054 0.07451,-0.0306 0.08732,-0.0415 0.128906,-0.0508 0.04159,-0.009 0.129749,-0.0193 0.318359,-0.0254 0.377221,-0.0122 1.148918,-0.0112 2.814453,-0.0137 z m 1.32032,0.0137 c 0.49124,-0.0538 0.93182,0.27472 0.95898,0.64062 0.0137,0.18431 -0.0734,0.31763 -0.23242,0.37891 -0.10999,0.0423 -0.27124,0.0332 -0.36133,-0.0137 -0.0635,-0.033 -0.14314,-0.14064 -0.14648,-0.15235 -0.0182,-0.0642 -0.0356,-0.0965 -0.0762,-0.14843 -0.0461,-0.0591 -0.15967,-0.12487 -0.26172,-0.13868 -0.10206,-0.0138 -0.22562,-0.0137 -0.44727,-0.0137 h -0.16992 c 0.0313,-0.12988 0.0877,-0.23868 0.20312,-0.33594 0.14898,-0.12548 0.30467,-0.19174 0.53321,-0.21679 z m -6.421878,4.3125 c 0.861486,0 1.644533,2.6e-4 2.210937,0.002 0.259259,7.7e-4 0.457888,0.003 0.613282,0.004 -0.118578,0.33594 -0.06466,0.70487 0.142578,1.03125 h -2.777344 c -1.293477,-5.5e-4 -2.094277,-6.7e-4 -2.580078,-0.004 -0.242901,-0.002 -0.407942,-0.005 -0.513672,-0.008 -0.10573,-0.003 -0.181676,-0.0143 -0.136719,-0.004 -0.133671,-0.0309 -0.218731,-0.0749 -0.326172,-0.16601 -0.123081,-0.1044 -0.15127,-0.14955 -0.185547,-0.28907 -0.05473,-0.22277 0.09363,-0.46951 0.359375,-0.54296 0.02801,-0.008 0.01829,-0.008 0.07422,-0.0117 0.05593,-0.004 0.163494,-0.006 0.365235,-0.008 0.40348,-0.004 1.187677,-0.004 2.753906,-0.004 z"/>
  <path d="m 92.540604,148.46487 c -0.611871,-0.0844 -1.175347,-0.70541 -0.951613,-1.34059 0.156011,-0.53352 0.749324,-0.79335 1.269629,-0.73485 0.49504,-0.009 0.992236,0.0113 1.48555,-0.0254 -0.131165,-1.02138 -0.305718,-2.03738 -0.435236,-3.05848 -0.01971,-0.78005 0.805711,-1.30195 1.525388,-1.22457 2.358318,0.005 4.718808,-0.009 7.075768,0.007 0.64669,0.0917 1.28753,0.67806 1.15074,1.37524 -0.14969,0.8558 -1.48588,0.97139 -1.86466,0.22531 -0.22872,0.0342 -0.71952,-0.13062 -0.55615,0.2506 0.14549,1.10242 0.35989,2.19792 0.45469,3.3056 -0.0739,0.78743 -0.909,1.31044 -1.65944,1.23443 -2.498131,-0.005 -4.997262,0.0221 -7.494666,-0.014 z m 7.839046,-0.32811 c 0.52735,-0.10796 1.03319,-0.60983 0.8879,-1.1831 -0.15525,-1.23063 -0.38208,-2.45351 -0.51376,-3.68608 -0.004,-0.34305 0.19771,-0.63996 0.43616,-0.86859 -2.014257,0.0115 -4.02935,-0.0162 -6.042937,0.0298 -0.527779,0.035 -0.979497,0.58537 -0.806689,1.11306 0.13036,0.94356 0.278302,1.88463 0.408606,2.82821 1.671907,0.0401 3.346534,-0.0258 5.017234,0.0434 0.489866,-0.1372 1.135696,0.98505 0.419496,0.84531 -0.0512,-0.50262 -0.736105,-0.73446 -1.041825,-0.29096 -0.323055,0.50971 0.217439,1.10952 0.734014,1.17818 0.165581,0.0315 0.338431,0.0241 0.501801,-0.009 z m -1.368581,-0.0463 c -0.4645,-0.31417 -0.363491,-1.06102 -0.245584,-1.35731 -2.065257,-0.008 -4.131008,-0.0213 -6.196047,0.004 -0.527769,0.0148 -0.847502,0.7232 -0.457508,1.10574 0.344694,0.42385 0.920543,0.28531 1.393424,0.31258 1.858482,0.006 3.716976,0.003 5.575464,0.005 -0.02325,-0.0233 -0.0465,-0.0467 -0.06975,-0.07 z m 3.911221,-4.27445 c 0.6596,-0.27527 0.29172,-1.22238 -0.29458,-1.34139 -0.61984,-0.24756 -1.50208,0.15667 -1.47898,0.88779 0.30387,0.0113 0.61472,-0.0302 0.91266,0.0362 0.15887,0.3341 0.47672,0.57095 0.8609,0.41736 z"/>
</svg>