<?xml version="1.0" encoding="UTF-8" standalone="no"?>
<svg
   viewBox="0 0 159 100"
   width="159"
   height="100"
   version="1.1"
   id="svg452"
   sodipodi:docname="111.svg"
   inkscape:version="1.4.2 (f4327f4, 2025-05-13)"
   xmlns:inkscape="http://www.inkscape.org/namespaces/inkscape"
   xmlns:sodipodi="http://sodipodi.sourceforge.net/DTD/sodipodi-0.dtd"
   xmlns="http://www.w3.org/2000/svg"
   xmlns:svg="http://www.w3.org/2000/svg">
  <defs
     id="defs452" />
  <sodipodi:namedview
     id="namedview452"
     pagecolor="#ffffff"
     bordercolor="#000000"
     borderopacity="0.25"
     inkscape:showpageshadow="2"
     inkscape:pageopacity="0.0"
     inkscape:pagecheckerboard="0"
     inkscape:deskcolor="#d1d1d1"
     inkscape:zoom="5.1760216"
     inkscape:cx="94.570702"
     inkscape:cy="51.197622"
     inkscape:window-width="1920"
     inkscape:window-height="950"
     inkscape:window-x="-9"
     inkscape:window-y="891"
     inkscape:window-maximized="1"
     inkscape:current-layer="svg452" />
  <path
     d="m 152.95312,34.996094 c -0.0214,0.0049 -0.0476,0.01186 -0.0781,0.01953 2.3e-4,7.79e-4 -2.4e-4,0.0012 0,0.002 0.0179,-0.0043 0.0641,-0.01842 0.0781,-0.02148 z"
     style="baseline-shift:baseline;display:inline;overflow:visible;vector-effect:none;enable-background:accumulate;stop-color:#000000;stop-opacity:1"
     id="path456" />
  <path
     d="m 36.947266,-0.15039062 -0.04102,0.0332031 c -4.671745,3.6771151 -8.572356,8.8400329 -9.056641,15.1054685 -0.131223,1.655437 -0.01,3.368363 0,5.011719 v 0.002 c 0.02001,3.000827 0.05979,5.303658 1.007813,8.046875 0.05681,0.172054 0.05335,0.546911 0.02734,0.925781 -0.02606,0.379669 -0.06735,0.764062 -0.0332,1.042969 0.332485,2.83116 1.195715,5.057058 0.998047,7.972656 -0.03072,0.511936 0,1.019532 0,1.019532 -8.31e-4,0.232917 -0.04379,0.624774 -0.06641,1.011718 -0.02283,0.390664 -0.03735,0.767682 0.07813,1.03711 l 0.0293,0.06641 0.06836,0.01953 c 0.126924,0.03626 0.361349,0.187519 0.548828,0.369141 0.187481,0.181622 0.329074,0.405079 0.34375,0.507812 C 31.61015,47.29162 31.849609,52.664494 31.849609,58 v 1.046875 l 0.02734,0.03906 c 1.166273,1.678297 1.03524,3.69144 0.972656,5.763672 C 26.797354,65.343891 20.755878,64.536585 15.017578,63.851562 14.752254,63.819074 14.377569,63.825902 14,63.835937 c -0.377569,0.01004 -0.756152,0.02319 -0.994141,0.01367 -5.2733087,-0.21296 -10.0419698,3.452647 -13.11914025,7.052735 l -0.0371094,0.04297 v 26.265625 l 0.19921874,-0.07031 c 0.59460755,-0.20799 1.01732518,-0.260599 1.31640628,-0.21875 0.2990811,0.04185 0.4816055,0.169442 0.6386719,0.369141 0.3141325,0.399397 0.4656191,1.112399 0.8671875,1.785156 l 0.019531,0.03125 0.029297,0.01953 c 0.2923686,0.18273 0.8165814,0.673942 0.9453125,0.939457 l 0.041016,0.084 h 121.23828 l 0.006,-0.14453 c 0.009,-0.220815 0.0786,-0.362332 0.18945,-0.472657 0.11084,-0.110325 0.27117,-0.18896 0.46094,-0.242187 0.37953,-0.106455 0.85951,-0.106001 1.21485,-0.142579 l 0.0332,-0.002 0.0312,-0.01953 c 0.10687,-0.06633 0.23912,-0.192387 0.42187,-0.369141 0.18276,-0.176753 0.40097,-0.396655 0.61719,-0.61914 0.43244,-0.44497 0.86112,-0.903104 0.98828,-1.035156 2.47437,-2.565266 4.80606,-6.771675 6.0332,-10.050782 0.0696,-0.187851 0.9904,-1.962948 1.00391,-2.019531 0.24458,-0.893787 0.006,-2.202088 0.006,-3.033203 0,-0.268 -0.0462,-0.659726 -0.0684,-1.039063 -0.0222,-0.379335 -0.008,-0.751771 0.0566,-0.902343 0.17055,-0.384581 0.15571,-0.957263 0.11914,-1.541016 C 136.22108,77.932673 136.15039,77.339861 136.15039,77 v -1.011719 l -0.002,-0.01172 C 135.28768,70.71163 134.16035,65.459555 134.15039,60 c 0,-1.276822 0.17174,-2.71214 -0.002,-4.019531 -0.0829,-0.632319 -0.29046,-1.110551 -0.4961,-1.564453 -0.20563,-0.453903 -0.40769,-0.883397 -0.5039,-1.441407 -0.22102,-1.2396 0.20739,-2.649998 0,-3.998047 -0.0862,-0.565744 -0.40157,-1.132419 -0.65625,-1.773437 -0.25469,-0.641018 -0.4542,-1.34803 -0.34375,-2.183594 v -0.002 c 0.0568,-0.463998 0.0114,-0.930048 0.002,-1.017578 v -0.0039 c 0,0 0,-0.002 0,-0.002 3.4e-4,-0.238313 0.0299,-0.619563 0.0449,-1 0.0152,-0.382662 0.0187,-0.75919 -0.0508,-1.03125 v -0.002 c -0.244,-0.912354 -0.92653,-1.62621 -0.99414,-2.96875 -0.0186,-0.406669 -0.14539,-1.119609 -0.31055,-2.007812 -0.16516,-0.888203 -0.37036,-1.943855 -0.54492,-2.998047 -0.17455,-1.054192 -0.31826,-2.107159 -0.36523,-2.988281 -0.047,-0.881122 0.0173,-1.596139 0.20117,-1.925781 l 0.0156,-0.02734 0.002,-0.03125 c 0.0342,-0.379805 0.0949,-0.641576 0.16211,-0.798828 0.0672,-0.157252 0.12719,-0.194857 0.16992,-0.203125 0.0427,-0.0083 0.11951,0.01274 0.22265,0.09375 0.10316,0.08101 0.22175,0.211583 0.3379,0.36914 0.23228,0.315115 0.45748,0.732305 0.61328,1.056641 0.0779,0.162168 0.13875,0.301633 0.17382,0.392578 0.0172,0.04459 0.0289,0.07862 0.0312,0.08789 -2.9e-4,-0.0023 8e-5,-0.0074 0,-0.01367 -7e-5,-0.0063 0.002,-0.03026 0.002,-0.0293 -1.1e-4,4.8e-4 0.01,-0.02965 0.01,-0.0293 -1.6e-4,3.55e-4 0.0273,-0.04068 0.0273,-0.04102 -2.3e-4,2.31e-4 0.0563,-0.03488 0.0566,-0.03516 -7e-5,2.7e-5 0.004,-0.0011 0.01,-0.002 C 131.69457,29.1679 130.24395,26.290455 130,29 c -0.87,1.56 0.93,8.47 1,10 0.07,1.39 0.77,2.14 1,3 0.12,0.47 0,1.5 0,2 0,0 0.06,0.51 0,1 -0.23,1.74 0.84,2.95 1,4 0.2,1.3 -0.23,2.71 0,4 0.2,1.16 0.84,1.78 1,3 0.17,1.28 0,2.71 0,4 0.01,5.48 1.14,10.74 2,16 v 1 c 0,0.72 0.29,2.35 0,3 -0.18,0.42 0,1.5 0,2 0,0.86 0.23,2.17 0,3 -0.01,0.05 -0.9,1.73 -1,2 -1.22,3.26 -3.55,7.46 -6,10 -0.26,0.27 -1.71,1.82 -2,2 -0.68,0.07 -1.96,-0.01 -2,1 H 4 C 3.84,99.67 3.32,99.2 3,99 2.23,97.71 2.43,96.15 0,97 V 71 c 3.06,-3.58 7.8,-7.21 13,-7 0.5,0.02 1.51,-0.06 2,0 5.78,0.69 11.88,1.52 18,1 0.06,-2.12 0.23,-4.23 -1,-6 v -1 c 0,-5.34 -0.24,-10.72 -1,-16 -0.05,-0.35 -0.65,-0.9 -1,-1 -0.18,-0.42 0,-1.5 0,-2 0,0 -0.03,-0.5 0,-1 0.2,-2.95 -0.67,-5.19 -1,-8 -0.06,-0.49 0.15,-1.55 0,-2 -0.94,-2.72 -0.98,-5 -1,-8 -0.01,-1.65 -0.13,-3.36 0,-5 0.48,-6.21 4.35,-11.34 9,-15 h 116 c 1.43,2.33 3.72,4.43 6,6 v 25 c -2.14403,1.057057 -3.79157,2.968096 -5.98242,3.990234 v -0.002 h -0.002 v -0.002 h -0.002 c -0.004,9.3e-5 -0.0113,6.3e-4 -0.0195,0.002 l 0.0684,0.148438 c 0.0208,-0.0096 0.036,-0.02732 0.0566,-0.03711 2.20768,-1.04464 3.85402,-2.932824 5.94727,-3.964843 l 0.084,-0.04102 V 5.921875 l -0.0644,-0.044922 c -2.2674,-1.561173 -4.54531,-3.6516794 -5.95899,-5.9550781 l -0.043,-0.07226562 z M 68.173828,7.6582031 C 67.048867,7.7053906 65.985,7.8125 65,8 57.12,9.5 45.72,4.82 42,14 c -0.1,0.26 -0.78,0.7 -1,1 -3.36,4.56 -0.339688,14.289687 0.07031,19.929687 C 41.480312,40.559687 42.93,48.31 44,54 c 0.18,0.96 -0.12,2.03 0,3 0.02991,0.269165 0.100078,2.406808 0.992187,2.003906 C 44.817843,59.132429 45.039377,60.507782 45,61 c -0.43,6.16 8.89,4 13,4 h 1 c 5.32,0 10.68,0.2 16,0 2.03,-0.08 3.39,-0.03 5,0 6.11,0.13 14.76,1.23 20,-1 0.42,-0.18 1.5,0 2,0 3.04,0 6.34,-0.52 9,1 0,0 0.56,-0.16 1,0 5.05,1.82 7.54,5.97 8,11 0.03,0.35 0.87,0.73 1,1 0.28241,0.564821 0.19196,3.202236 0.0117,3.931641 l -0.002,-0.002 h -0.002 -0.002 -0.002 l -0.002,0.002 c -0.01,0.0078 -0.0253,0.02777 -0.0449,0.05664 l 0.1875,0.05469 c 0.006,-0.02094 0.0101,-0.03931 0.0137,-0.05859 0.004,-0.01928 0.0119,-0.03333 0,-0.08398 v -0.002 c 0.0961,-0.403012 0.16016,-1.123313 0.17188,-1.917968 0.006,-0.427282 -0.002,-0.853585 -0.0312,-1.212891 -0.0289,-0.358495 -0.069,-0.641086 -0.16406,-0.832031 v -0.002 c -0.054,-0.111284 -0.14517,-0.188059 -0.24805,-0.271485 -0.10329,-0.08375 -0.22114,-0.16732 -0.33399,-0.251953 -0.11284,-0.08463 -0.21899,-0.170535 -0.29296,-0.248047 -0.074,-0.07751 -0.10677,-0.145325 -0.10938,-0.175781 h -0.002 c -0.46379,-5.071437 -2.99403,-9.287626 -8.09766,-11.126953 -0.47129,-0.17138 -0.93564,-0.02588 -1.01172,-0.0039 -2.71301,-1.530351 -6.02861,-1.00586 -9.03906,-1.00586 -0.232,0 -0.63082,-0.04358 -1.02148,-0.06641 -0.39067,-0.02283 -0.76769,-0.03735 -1.037114,0.07813 -5.168916,2.199749 -13.812519,1.1186 -19.9375,0.988281 h -0.002 c -1.608469,-0.02997 -2.972721,-0.0802 -5.007812,0 -5.312469,0.199717 -10.670382,0 -15.994141,0 h -1 c -2.081277,0 -5.428433,0.538158 -8.189453,0.310547 -1.38051,-0.113805 -2.606786,-0.420893 -3.447266,-1.05664 -0.840049,-0.635422 -1.317162,-1.590071 -1.21289,-3.091797 v -0.002 c 0.02244,-0.284096 -0.02818,-0.751842 -0.05664,-1.173829 -0.01425,-0.211343 -0.02293,-0.409416 -0.01758,-0.550781 0.0027,-0.07068 0.008,-0.127638 0.01563,-0.158203 3.36e-4,-0.0014 -3.12e-4,-0.0025 0,-0.0039 0,0 -0.002,0 -0.002,0 -0.0057,0.0034 -0.01475,0.0067 -0.02539,0.01172 L 44.9375,58.863281 c -0.08994,0.04197 -0.15293,0.04647 -0.205078,0.03516 -0.05215,-0.01132 -0.10091,-0.04117 -0.152344,-0.09766 -0.102867,-0.112973 -0.197799,-0.332166 -0.261719,-0.580078 -0.06392,-0.247911 -0.102547,-0.52309 -0.126953,-0.751953 -0.02441,-0.228863 -0.03376,-0.401522 -0.04297,-0.484375 v -0.002 c -0.114609,-0.92643 0.187378,-2.000251 -0.002,-3.009766 -1.069976,-5.689877 -2.51887,-13.43834 -2.927734,-19.052734 -0.206479,-2.840341 -1.064233,-6.679633 -1.449219,-10.375 -0.384986,-3.695367 -0.285483,-7.233374 1.351563,-9.455078 v -0.002 c 0.0871,-0.11877 0.309847,-0.306878 0.521484,-0.488282 0.105819,-0.0907 0.209648,-0.182914 0.296875,-0.271484 0.08653,-0.08786 0.158665,-0.167766 0.199219,-0.271484 l 0.002,-0.002 c 0.918321,-2.264529 2.297314,-3.659169 3.982422,-4.5195317 1.6858,-0.8607165 3.683636,-1.1835614 5.822265,-1.265625 4.277262,-0.1641275 9.100827,0.6347967 13.082032,-0.1230469 0.97575,-0.1857393 2.033125,-0.2913066 3.152343,-0.3378907 1.119219,-0.046584 2.300279,-0.034185 3.523438,0.015625 2.446318,0.09962 5.060969,0.3500056 7.685547,0.5800782 5.248398,0.4600787 10.53907,0.8402586 14.648437,-0.2597656 h 0.002 c 0.420073,-0.1062551 0.927735,0.00195 0.927735,0.00195 h 0.0039 l 0.0059,0.00195 c 7.362578,1.2071438 15.622468,-0.071696 23.847658,0.00781 -0.55415,2.959128 -0.72225,6.042585 -1.96094,8.78125 l -0.008,0.01953 -0.004,0.01953 c -0.13381,0.864621 -0.12294,2.184298 0,3.044922 0.70229,5.066469 2.34545,10.787458 1.99805,15.96875 -0.0307,0.511936 0,1.019532 0,1.019532 V 38 c 0,0.232 -0.0436,0.630821 -0.0664,1.021484 -0.0228,0.390664 -0.0373,0.767682 0.0781,1.03711 0.97278,2.279655 1.06547,5.309631 1.99609,7.990234 0.0588,0.178009 0.0673,0.550142 0.0488,0.925781 -0.0185,0.37643 -0.0566,0.760391 -0.0566,1.025391 -0.0198,2.35853 0.89197,3.876733 1,6.007812 0.0592,1.222735 -0.091,2.565508 0,4.001954 0.27974,4.635698 0.27155,7.822188 2.01172,12.046875 v 0.002 c 0.14801,0.35359 -0.004,0.896484 -0.004,0.896484 l -0.008,0.02148 V 75 76 c 0,1.496531 0.37857,3.612935 0.006,4.960937 -0.0354,0.122152 -0.18495,0.328751 -0.36914,0.50586 -0.18466,0.177555 -0.40536,0.334052 -0.54688,0.396484 l -0.0488,0.02148 -0.0254,0.04883 c -2.29666,4.623287 -3.85744,6.938547 -8.91992,8.927734 -0.35605,0.140766 -0.90234,-0.0059 -0.90234,-0.0059 l -0.0723,-0.01953 -0.0586,0.04297 c -1.08046,0.79058 -2.35233,0.765937 -3.67578,0.210938 -1.32345,-0.555 -2.67982,-1.648467 -3.85156,-2.970703 -1.17175,-1.322236 -2.1615,-2.872559 -2.76563,-4.328125 -0.60413,-1.455567 -0.8138,-2.814121 -0.47851,-3.740235 0.4724,-1.306673 0.22989,-0.942106 0.98046,-1.96289 0.7709,-1.054393 1.25034,-1.538546 1.73438,-1.644532 0.48404,-0.105986 1.06763,0.146294 2.07422,0.689453 1.03826,0.563876 1.42424,0.90116 1.93554,1.933594 0.35141,0.717055 0.42042,1.646494 0.61329,2.566406 0.19277,0.919463 0.52437,1.839664 1.43359,2.488282 0.22329,0.162391 0.50698,0.149586 0.73242,0.117187 0.20269,-0.02913 0.3338,-0.07701 0.36524,-0.08789 H 115 c 0.492,0 1.48795,0.0419 2.01172,0 1.20835,-0.087 1.87326,-0.510877 2.875,-0.955079 0.0201,0.005 0.054,0.01367 0.0547,0.01367 4.4e-4,-10e-7 0.0288,-0.0019 0.0293,-0.002 5e-4,-9.4e-5 0.015,-0.0037 0.0215,-0.0059 0.0129,-0.0044 0.0215,-0.0092 0.0293,-0.01367 0.0624,-0.03605 0.069,-0.05837 0.0977,-0.0957 l 0.34961,-0.457031 -0.25,0.107421 c 0.0885,-0.197241 0.19569,-0.43108 0.32813,-0.693359 0.15971,-0.316341 0.32738,-0.631896 0.4414,-0.828125 0.0459,-0.07893 0.0909,-0.144157 0.10742,-0.167969 -0.005,0.004 -0.0157,0.009 -0.0312,0.01563 -0.005,0.0023 -0.0219,0.006 -0.0215,0.0059 4.3e-4,-1.11e-4 -0.0267,0.0056 -0.0273,0.0059 7.8e-4,-4.1e-5 -0.0751,-0.01753 -0.0762,-0.01758 2.5e-4,1.3e-4 -0.009,-0.0077 -0.0195,-0.01758 -0.25359,0.408038 -0.93223,1.756529 -0.98242,1.982422 0.0207,-0.009 0.0415,-0.01834 0.0625,-0.02734 -0.0243,0.03166 -0.0441,0.05205 -0.0547,0.05859 h -0.002 -0.002 -0.002 -0.002 l -0.002,-0.002 v -0.002 -0.002 -0.002 l -0.002,-0.002 c -5e-5,-0.0053 0.002,-0.01251 0.004,-0.02148 C 118.85618,83.496394 118.22654,83.911689 117,84 c -0.5,0.04 -1.5,0 -2,0 h -3 c 0,0 -0.67,0.24 -1,0 -1.74,-1.24 -1.26,-3.49 -2,-5 -0.52,-1.05 -0.95,-1.43 -2,-2 -2.02,-1.09 -2.45,-1.12 -4,1 -0.75,1.02 -0.53,0.7 -1,2 -1.43,3.95 6.49,14.3 11,11 0,0 0.57,0.17 1,0 5.09,-2 6.7,-4.37 9,-9 0.34,-0.15 0.9,-0.65 1,-1 0.39,-1.41 0,-3.53 0,-5 v -1 -2 c 0,0 0.18,-0.57 0,-1 -1.73,-4.2 -1.72,-7.36 -2,-12 -0.09,-1.42 0.06,-2.76 0,-4 -0.11,-2.17 -1.02,-3.68 -1,-6 0,-0.5 0.15,-1.55 0,-2 -0.92,-2.65 -1.01,-5.68 -2,-8 -0.18,-0.42 0,-1.5 0,-2 v -1 c 0,0 -0.03,-0.5 0,-1 0.35,-5.22 -1.3,-10.95 -2,-16 -0.12,-0.84 -0.13,-2.16 0,-3 1.28,-2.83 1.42,-6 2,-9 C 110.7,7.9 102.38,9.21 95,8 95,8 94.47,7.88 94,8 86.8775,9.9075 76.048555,7.3278906 68.173828,7.6582031 Z M 138.74219,8.8046875 C 135.68594,8.8621875 132.715,10.485 131,14 c -0.51,1.06 -1.53,2.35 0,3 0.92,0.4 2.98,0 4,0 1.17,0 2.87,0.31 4,0 1.81,1.43 3.92,3.02 3,6 3.39,1.88 5.57,1.93 7,-2 0.91,-2.51 -0.23,-5.64 -2,-8 -2.06,-2.745 -5.20156,-4.2528125 -8.25781,-4.1953125 z m 0.002,0.1503906 c 3.00502,-0.056536 6.10485,1.4272539 8.13672,4.1347659 1.75035,2.333803 2.86122,5.424679 1.97851,7.859375 -0.70655,1.941791 -1.57223,2.851765 -2.65625,3.082031 -1.06455,0.226131 -2.40676,-0.224888 -4.04882,-1.125 0.40564,-1.455764 0.12988,-2.626028 -0.50586,-3.570313 -0.65786,-0.977128 -1.65072,-1.738937 -2.55469,-2.453125 l -0.0606,-0.04687 -0.0723,0.01953 c -1.06838,0.293095 -2.76444,-0.0059 -3.96094,-0.0059 -0.52961,0 -1.29582,0.100817 -2.04688,0.150391 -0.75105,0.04957 -1.48688,0.03967 -1.89257,-0.136719 l -0.002,-0.002 c -0.36054,-0.153173 -0.5483,-0.332064 -0.64062,-0.521484 -0.0923,-0.189421 -0.0959,-0.405067 -0.0371,-0.652344 0.11747,-0.494065 0.49231,-1.077767 0.75391,-1.621094 v -0.002 c 1.69316,-3.468916 4.60481,-5.0528473 7.60937,-5.1093749 z m -6.73633,21.0351559 -0.11133,0.117188 0.002,0.002 c 0.62587,0.606135 1.4143,1.43443 1.99804,1.998047 0.97544,0.934793 3.02526,2.517185 4.03516,3.027344 l 0.0312,0.01367 0.0332,0.002 c 0.62857,0.0145 1.06019,0.155518 1.49219,0.347656 0.43201,0.192138 0.86382,0.439719 1.46289,0.644531 1.94525,0.661786 2.99432,0.875707 5.10742,-0.0039 0.35359,-0.148014 0.89649,0.0039 0.89649,0.0039 l 0.0215,0.0078 H 149 c 0.264,0 0.64601,-0.03544 1.02148,-0.05273 0.37469,-0.01725 0.74666,-0.01153 0.9336,0.04492 h 0.002 l 0.002,0.002 0.082,-0.28125 c 0,0 0.002,-0.002 0.002,-0.002 0,0 0.002,-0.002 0.002,-0.002 l 0.002,-0.002 h 0.002 0.002 l 0.002,-0.002 c 0.004,-0.0012 0.009,-0.0036 0.0215,-0.01172 0.14314,-0.09789 0.44329,-0.229948 0.75976,-0.345703 0.31648,-0.115755 0.65273,-0.220017 0.89063,-0.28711 0.11895,-0.03355 0.21536,-0.05775 0.26562,-0.06836 0.01,-0.0021 0.018,-0.0047 0.0234,-0.0059 -0.003,-1.2e-4 -0.007,4.22e-4 -0.0117,0 -0.007,-5.58e-4 -0.0327,-0.0077 -0.0332,-0.0078 2.8e-4,9.6e-5 -0.0329,-0.01553 -0.0332,-0.01563 1.9e-4,1.24e-4 -0.0448,-0.04484 -0.0449,-0.04492 7e-5,9.5e-5 -0.009,-0.02984 -0.0156,-0.05273 -0.56773,0.142752 -2.56822,0.773485 -1.88477,0.982422 C 150.52586,35.862473 149.49681,36 149,36 h -2 c 0,0 -0.57,-0.18 -1,0 -2.09,0.87 -3.06,0.66 -5,0 -1.17,-0.4 -1.7,-0.97 -3,-1 -0.97,-0.49 -3.04,-2.08 -4,-3 -0.57858,-0.558633 -1.3649,-1.386515 -1.99414,-1.996094 l 0.002,-0.002 V 30 v -0.002 c -2e-5,-0.002 4.8e-4,-0.0048 0,-0.0078 z M 84.388672,74.666016 C 81.623516,74.554922 78.505,75 76,75 h -3 c -3.31,0 -6.7,-0.22 -10,0 -3.17,0.22 -5.2,0.18 -8,0 -1.65,-0.11 -3.35,0 -5,0 0,0 -0.5,-0.01 -1,0 -3.85,0.11 -6.3,0.36 -10,0 -0.5,-0.05 -1.5,0 -2,0 h -4 -2 -6 -5 c -1,0 -2.01,-0.04 -3,0 -2.36,0.11 -3.36,0.64 -5,2 -0.9,0.75 -2.62,2.68 -3,4 -0.66,2.28 0.9,4.25 2,6 5.33,8.47 22.49,5 32,5 h 1 16 4 1 1 26 c 0.35,-1.25 -0.67,-1.98 -1,-3 -0.38,-1.17 -0.81,-1.76 -1,-3 -0.39,-2.52 1.07,-6.73 0,-9 -0.44,-0.94 -1.96,-1.75 -3,-2 -0.8075,-0.1975 -1.689609,-0.296953 -2.611328,-0.333984 z m -0.0039,0.154296 c 0.914033,0.03598 1.785868,0.131921 2.580078,0.326172 0.500351,0.120277 1.131046,0.380362 1.68164,0.722657 0.550595,0.342294 1.0179,0.770395 1.216797,1.195312 h 0.002 c 0.508533,1.078849 0.422199,2.679771 0.240235,4.326172 -0.181964,1.646401 -0.455163,3.332379 -0.253907,4.632812 0.194053,1.266451 0.631553,1.870967 1.00586,3.023438 0.175706,0.543093 0.521067,0.985916 0.765625,1.4375 0.226409,0.418073 0.323577,0.845539 0.214844,1.365234 H 66 65 64 60 44 43 c -4.773244,0 -11.434969,0.866488 -17.5625,0.675782 -6.127531,-0.190707 -11.689112,-1.4397 -14.310547,-5.605469 -0.553506,-0.880578 -1.2139086,-1.806023 -1.6503905,-2.783203 -0.4364819,-0.97718 -0.6500457,-1.997108 -0.3320312,-3.095703 0.3574644,-1.241719 2.0761917,-3.196631 2.9511717,-3.925782 1.631112,-1.352629 2.572351,-1.85556 4.910156,-1.964843 0.981858,-0.03967 1.990141,0 2.994141,0 h 5 6 2 4 c 0.51,0 1.513931,-0.04895 1.984375,-0.002 h 0.002 c 3.713014,0.361267 6.172248,0.111774 10.017578,0.002 0.496003,-0.0099 0.992188,0 0.992188,0 h 0.002 H 50 c 1.656667,0 3.35368,-0.109104 4.990234,0 2.803213,0.180206 4.843867,0.220393 8.019532,0 3.286574,-0.219105 6.673587,0 9.990234,0 h 3 c 1.681826,0 3.629205,-0.194771 5.552734,-0.292969 0.961765,-0.0491 1.917998,-0.07309 2.832032,-0.03711 z"
     style="baseline-shift:baseline;display:inline;overflow:visible;vector-effect:none;fill-opacity:0.99;enable-background:accumulate;stop-color:#000000;stop-opacity:1"
     id="path455" />
  <path
     d="m 37,0 c -4.65,3.66 -8.52,8.79 -9,15 -0.13,1.64 -0.01,3.35 0,5 0.02,3 0.06,5.28 1,8 0.15,0.45 -0.06,1.51 0,2 0.33,2.81 1.2,5.05 1,8 -0.03,0.5 0,1 0,1 0,0.5 -0.18,1.58 0,2 0.35,0.1 0.95,0.65 1,1 0.76,5.28 1,10.66 1,16 v 1 c 1.23,1.77 1.06,3.88 1,6 -6.12,0.52 -12.22,-0.31 -18,-1 -0.49,-0.06 -1.5,0.02 -2,0 -5.2,-0.21 -9.94,3.42 -13,7 v 26 c 2.43,-0.85 2.23,0.71 3,2 0.32,0.2 0.84,0.67 1,1 h 121 c 0.04,-1.01 1.32,-0.93 2,-1 0.29,-0.18 1.74,-1.73 2,-2 2.45,-2.54 4.78,-6.74 6,-10 0.1,-0.27 0.99,-1.95 1,-2 0.23,-0.83 0,-2.14 0,-3 0,-0.5 -0.18,-1.58 0,-2 0.29,-0.65 0,-2.28 0,-3 v -1 c -0.86,-5.26 -1.99,-10.52 -2,-16 0,-1.29 0.17,-2.72 0,-4 -0.16,-1.22 -0.8,-1.84 -1,-3 -0.23,-1.29 0.2,-2.7 0,-4 -0.16,-1.05 -1.23,-2.26 -1,-4 0.06,-0.49 0,-1 0,-1 0,-0.5 0.12,-1.53 0,-2 -0.23,-0.86 -0.93,-1.61 -1,-3 -0.07,-1.53 -1.87,-8.44 -1,-10 0.26906,-2.988516 2.0056,0.820235 2.00781,0.998047 V 30 v 0.002 l -0.002,0.002 C 132.63645,30.610995 133.42141,31.441367 134,32 c 0.96,0.92 3.03,2.51 4,3 1.3,0.03 1.83,0.6 3,1 1.94,0.66 2.91,0.87 5,0 0.43,-0.18 1,0 1,0 h 2 c 0.49681,0 1.52586,-0.136305 1.99023,-0.002 -0.7709,-0.235672 1.87259,-1.008492 2.02344,-1.011719 h 0.002 v 0.002 h 0.002 v 0.002 C 155.20609,33.966874 156.85597,32.057057 159,31 V 6 C 156.72,4.43 154.43,2.33 153,0 Z M 68.173828,7.6582031 C 76.048555,7.3278906 86.8775,9.9075 94,8 c 0.47,-0.12 1,0 1,0 7.38,1.21 15.7,-0.1 24,0 -0.58,3 -0.72,6.17 -2,9 -0.13,0.84 -0.12,2.16 0,3 0.7,5.05 2.35,10.78 2,16 -0.03,0.5 0,1 0,1 v 1 c 0,0.5 -0.18,1.58 0,2 0.99,2.32 1.08,5.35 2,8 0.15,0.45 0,1.5 0,2 -0.02,2.32 0.89,3.83 1,6 0.06,1.24 -0.09,2.58 0,4 0.28,4.64 0.27,7.8 2,12 0.18,0.43 0,1 0,1 v 2 1 c 0,1.47 0.39,3.59 0,5 -0.1,0.35 -0.66,0.85 -1,1 -2.3,4.63 -3.91,7 -9,9 -0.43,0.17 -1,0 -1,0 -4.51,3.3 -12.43,-7.05 -11,-11 0.47,-1.3 0.25,-0.98 1,-2 1.55,-2.12 1.98,-2.09 4,-1 1.05,0.57 1.48,0.95 2,2 0.74,1.51 0.26,3.76 2,5 0.33,0.24 1,0 1,0 h 3 c 0.5,0 1.5,0.04 2,0 1.22654,-0.08831 1.85618,-0.503606 2.9375,-0.972656 0.0577,-0.259577 0.94581,-2.001969 1.06445,-2.095703 l 0.002,-0.002 h 0.002 0.002 0.002 l 0.002,0.002 C 121.18599,80.202142 121.28241,77.564822 121,77 c -0.13,-0.27 -0.97,-0.65 -1,-1 -0.46,-5.03 -2.95,-9.18 -8,-11 -0.44,-0.16 -1,0 -1,0 -2.66,-1.52 -5.96,-1 -9,-1 -0.5,0 -1.58,-0.18 -2,0 -5.24,2.23 -13.89,1.13 -20,1 -1.61,-0.03 -2.97,-0.08 -5,0 -5.32,0.2 -10.68,0 -16,0 h -1 c -4.11,0 -13.43,2.16 -13,-4 0.03938,-0.492218 -0.182473,-1.867571 -0.0078,-1.996094 C 44.099765,59.406809 44.029908,57.269165 44,57 43.88,56.03 44.18,54.96 44,54 42.93,48.31 41.480313,40.559687 41.070312,34.929687 40.660312,29.289687 37.64,19.56 41,15 41.22,14.7 41.9,14.26 42,14 45.72,4.82 57.12,9.5 65,8 65.985,7.8125 67.048867,7.7053906 68.173828,7.6582031 Z M 119.9375,83.027344 c -0.002,0.009 -0.004,0.01618 -0.004,0.02148 l 0.002,0.002 v 0.002 0.002 0.002 l 0.002,0.002 h 0.002 0.002 0.002 0.002 c 0.0106,-0.0065 0.0303,-0.02694 0.0547,-0.05859 -0.021,0.009 -0.0418,0.01837 -0.0625,0.02734 z M 138.74219,8.8046875 C 141.79844,8.7471875 144.94,10.255 147,13 c 1.77,2.36 2.91,5.49 2,8 -1.43,3.93 -3.61,3.88 -7,2 0.92,-2.98 -1.19,-4.57 -3,-6 -1.13,0.31 -2.83,0 -4,0 -1.02,0 -3.08,0.4 -4,0 -1.53,-0.65 -0.51,-1.94 0,-3 1.715,-3.515 4.68594,-5.1378125 7.74219,-5.1953125 z M 84.388672,74.666016 C 85.310391,74.703047 86.1925,74.8025 87,75 c 1.04,0.25 2.56,1.06 3,2 1.07,2.27 -0.39,6.48 0,9 0.19,1.24 0.62,1.83 1,3 0.33,1.02 1.35,1.75 1,3 H 66 65 64 60 44 43 C 33.49,92 16.33,95.47 11,87 9.9,85.25 8.34,83.28 9,81 c 0.38,-1.32 2.1,-3.25 3,-4 1.64,-1.36 2.64,-1.89 5,-2 0.99,-0.04 2,0 3,0 h 5 6 2 4 c 0.5,0 1.5,-0.05 2,0 3.7,0.36 6.15,0.11 10,0 0.5,-0.01 1,0 1,0 1.65,0 3.35,-0.11 5,0 2.8,0.18 4.83,0.22 8,0 3.3,-0.22 6.69,0 10,0 h 3 c 2.505,0 5.623516,-0.445078 8.388672,-0.333984 z M 121.01172,80.9375 c -0.004,0.01399 -0.006,0.03757 -0.01,0.05078 0.008,-0.02607 0.01,-0.04182 0.01,-0.05078 z"
     style=""
     id="path482" />
</svg>
