<svg xmlns="http://www.w3.org/2000/svg" viewBox="0 0 24 24" fill="currentColor">
  <path d="M19.14 12.94c.04-.31.06-.63.06-.94s-.02-.63-.06-.94l2.03-1.58c.18-.14.23-.41.12-.62l-1.92-3.32a.5.5 0 0 0-.58-.22l-2.39.96a7.7 7.7 0 0 0-1.63-.9l-.43-2.88A.5.5 0 0 0 13.99 1h-4a.5.5 0 0 0-.5.43l-.43 2.88c-.57.22-1.12.52-1.63.9l-2.39-.96a.5.5 0 0 0-.58.22L2.54 7.92c-.11.21-.06.48.12.62l2.03 1.58c-.04.31-.06.63-.06.94s.02.63.06.94l-2.03 1.58a.5.5 0 0 0-.12.62l1.92 3.32c.12.22.36.3.58.22l2.39-.96c.51.38 1.06.68 1.63.9l.43 2.88c.03.25.24.43.5.43h4c.26 0 .47-.18.5-.43l.43-2.88c.57-.22 1.12-.52 1.63-.9l2.39.96c.22.08.46 0 .58-.22l1.92-3.32a.5.5 0 0 0-.12-.62l-2.03-1.58zM12 15.5a3.5 3.5 0 1 1 0-7 3.5 3.5 0 0 1 0 7z"/>
</svg>